<svg version="1.1" class="clearos-svg clearfoundation app-vendor-clearfoundation app-free app-category-system app-sub-category-accounts" viewBox="0 0 400 400" preserveAspectRatio="xMinYMin" xmlns="http://www.w3.org/2000/svg" xmlns:xlink= "http://www.w3.org/1999/xlink">
<path fill="#AA0707" d="M91.666,184.647"/>
<path fill="#AA0707" d="M123.245,247.805"/>
<path fill="#AA0707" d="M91.666,184.647"/>
<path fill="#AA0707" d="M123.245,247.805"/>
<g>
	<g>
		<path fill="#686868" d="M150.001,375.232c0,7.201-5.827,13.037-13.029,13.037H21.312c-7.179,0-13.021-5.854-13.021-13.037l0,0
			c0-7.188,5.827-13.006,13.021-13.006h115.66C144.159,362.227,150.001,368.045,150.001,375.232L150.001,375.232z"/>
		<path fill="#686868" d="M391.709,375.232c0,7.201-5.818,13.037-13.021,13.037H263.02c-7.188,0-13.037-5.854-13.037-13.037l0,0
			c0-7.188,5.834-13.006,13.037-13.006h115.668C385.891,362.227,391.709,368.045,391.709,375.232L391.709,375.232z"/>
	</g>
	<path fill="#686868" d="M343.1,104.155h-1.338c-0.03,0-0.047,0-0.063,0H106.943c-18.408,0-33.34,14.948-33.34,33.34v149.999
		c-18.408,0-33.332-14.924-33.332-33.309v-150.03c0-18.408,14.94-33.332,33.332-33.332h268.096c5.535,0,10.646,1.462,15.238,3.83
		c-5.205-22.072-24.91-38.569-48.578-38.569H206.672c-6.912-19.383-25.186-33.332-46.943-33.332H58.309
		C30.67,2.752,8.307,25.14,8.307,52.754v33.333v173.649c0,27.633,22.378,49.994,50.002,49.994h50.002h51.401h30.534v40.291h-4.176
		c-13.038,0-23.621,10.568-23.621,23.621s10.568,23.605,23.621,23.605h27.812c13.046,0,23.613-10.555,23.613-23.605
		c0-13.053-10.567-23.621-23.613-23.621h-4.183V309.73h98.628h34.739c18.416,0,33.341-14.939,33.341-33.324v-138.91
		C376.438,119.104,361.482,104.155,343.1,104.155z M109.019,286.141c0-2.453,0.031-32.441,0.063-34.723
		c0.951-49.074,11.771-54.004,27.167-54.004h4.333v-18.392c-8.823-6.244-14.61-16.474-14.61-28.08
		c0-19.037,15.412-34.433,34.401-34.433c18.998,0,34.41,15.396,34.41,34.433c0,11.606-5.811,21.836-14.618,28.08v18.392h3.444
		c15.781,0,24.752,3.043,25.398,54.696c0.031,2.045,0.063,31.813,0.063,34.031H109.019L109.019,286.141z M225.732,286.141
		c0-2.453,0-32.441,0.031-34.723c0.959-49.074,11.778-54.004,27.174-54.004h4.342v-18.392c-8.791-6.244-14.627-16.474-14.627-28.08
		c0-19.037,15.443-34.433,34.427-34.433c18.966,0,34.409,15.396,34.409,34.433c0,11.606-5.836,21.836-14.644,28.08v18.392h3.462
		c15.758,0,24.721,3.043,25.383,54.696c0.03,2.045,0.063,31.813,0.063,34.031H225.732L225.732,286.141z"/>
</g>
</svg>
